<svg width="54" height="54" viewBox="0 0 54 54" fill="none" xmlns="http://www.w3.org/2000/svg">
<g filter="url(#filter0_di_106_3)">
<rect x="3" y="3" width="48" height="48" rx="14" fill="url(#paint0_linear_106_3)"/>
</g>
<g filter="url(#filter1_d_106_3)">
<path fill-rule="evenodd" clip-rule="evenodd" d="M39.7033 14.2401C36.3844 10.9194 31.9701 9.08989 27.2727 9.08813C17.5878 9.08813 9.70521 16.9672 9.70082 26.653C9.69994 29.6132 10.4472 32.5302 11.8644 35.1124L9.5918 43.4108C9.50916 43.7141 9.59356 44.0376 9.81511 44.261C9.98215 44.4298 10.2081 44.5221 10.4402 44.5221C10.5149 44.5221 10.5897 44.5124 10.6635 44.4931L19.18 42.26C21.6663 43.5506 24.4532 44.2319 27.2657 44.2328C36.9576 44.2328 44.8402 36.3529 44.8446 26.6671C44.8464 21.9732 43.0204 17.5598 39.7033 14.2401Z" fill="url(#paint1_linear_106_3)"/>
</g>
<path fill-rule="evenodd" clip-rule="evenodd" d="M37.086 16.8529C34.4661 14.2312 30.9837 12.7868 27.2771 12.7859C19.6248 12.7859 13.4012 19.0069 13.3977 26.6539C13.3968 29.2747 14.1301 31.826 15.5191 34.0353L15.8497 34.5602L14.4474 39.6778L19.6987 38.3011L20.206 38.6017C22.3353 39.866 24.7776 40.5341 27.2674 40.535H27.2727C34.9197 40.535 41.1433 34.3132 41.146 26.6653C41.1468 22.9596 39.7059 19.4746 37.086 16.8529Z" fill="url(#paint2_linear_106_3)"/>
<path opacity="0.05" fill-rule="evenodd" clip-rule="evenodd" d="M31.8303 35.3567C30.9556 35.3567 29.7608 35.1334 27.358 34.1865C24.6678 33.1245 22.025 30.8193 19.9167 27.6948L19.8491 27.5954C19.2846 26.842 17.9747 24.8639 17.9747 22.76C17.9747 20.4918 19.107 19.2847 19.5906 18.7686L19.6653 18.6886C20.3326 17.958 21.1186 17.8798 21.4254 17.8798C21.7498 17.8833 22.025 17.8798 22.2632 17.8903C22.8382 17.9132 23.4932 18.0793 23.9653 19.1291C24.1851 19.6196 24.5596 20.5401 24.8524 21.2619C25.0397 21.7252 25.1918 22.1015 25.2383 22.2017C25.4968 22.7169 25.5091 23.2277 25.27 23.7086L25.2128 23.8256C25.1003 24.0559 24.9834 24.2942 24.7346 24.5843L24.528 24.8322C24.3856 25.0054 24.2423 25.1777 24.1148 25.3114C24.4568 25.8749 25.175 26.9431 26.1641 27.8258C27.3897 28.9168 28.4394 29.3731 29.0029 29.6184C29.1146 29.6667 29.2078 29.7081 29.2816 29.7432C29.6377 29.33 30.2241 28.6258 30.4263 28.3243C31.1033 27.3079 32.0765 27.6605 32.3956 27.7774C32.8959 27.9585 35.3171 29.163 35.3409 29.1744L35.565 29.2843C35.9334 29.4628 36.2798 29.6307 36.4987 29.9947C36.846 30.5758 36.6534 31.8172 36.329 32.7245C35.8596 34.0459 33.8427 35.1906 32.7649 35.2873L32.5662 35.3084C32.3332 35.3356 32.0967 35.3567 31.8303 35.3567ZM21.5643 19.6381C21.4412 19.6381 21.2258 19.5871 20.9612 19.8755L20.8724 19.9713C20.4741 20.3959 19.7321 21.1872 19.7321 22.76C19.7321 24.3803 20.8979 26.063 21.2548 26.5404C21.2786 26.5721 21.3173 26.6292 21.3735 26.711C23.2857 29.5445 25.6401 31.6185 28.0033 32.5504C30.9784 33.7241 31.7424 33.6353 32.3605 33.5623L32.6049 33.536C33.1403 33.4876 34.4705 32.6999 34.6718 32.1346C34.8556 31.6203 34.9145 31.1789 34.9241 30.9266C34.8854 30.9081 34.8432 30.8888 34.7984 30.8677L34.5496 30.7455C33.9896 30.4642 32.1064 29.5445 31.7969 29.4311C31.4083 29.9657 30.6874 30.807 30.4966 31.0259C30.1388 31.4365 29.5058 31.8251 28.537 31.3372C28.479 31.3082 28.3998 31.2747 28.3014 31.2317C27.6939 30.967 26.4287 30.4176 24.9931 29.1392C23.7016 27.9867 22.818 26.5861 22.498 26.0367C22.1068 25.3676 22.2149 24.7223 22.8198 24.1201C22.9253 24.0146 23.0457 23.8642 23.1688 23.7157L23.3991 23.4396C23.5029 23.3192 23.5407 23.2409 23.6339 23.0519L23.6646 22.9895C23.5838 22.8101 23.4202 22.4101 23.2233 21.923C22.9393 21.2224 22.5762 20.3274 22.3626 19.8509C22.3054 19.7243 22.2624 19.6618 22.2413 19.6355C22.2457 19.6486 22.2158 19.6495 22.1903 19.6478C21.9951 19.6381 21.7815 19.6381 21.5643 19.6381Z" fill="black"/>
<path opacity="0.07" fill-rule="evenodd" clip-rule="evenodd" d="M31.8268 34.9215C31.083 34.9215 29.9322 34.7281 27.5198 33.7768C24.9113 32.7482 22.3406 30.5002 20.2816 27.4486L20.2051 27.3361C19.6635 26.6134 18.4142 24.732 18.4142 22.7591C18.4142 20.665 19.4631 19.5467 19.9115 19.0684L19.9897 18.984C20.5392 18.3835 21.1775 18.3193 21.4263 18.3193C21.7577 18.322 22.0127 18.3193 22.2448 18.3299C22.6773 18.3475 23.1741 18.4389 23.5653 19.3093C23.7842 19.7963 24.1552 20.7107 24.4453 21.4272C24.6431 21.9151 24.8014 22.3081 24.8427 22.3916C24.9148 22.5367 25.1399 22.9842 24.877 23.5126L24.8181 23.6321C24.7082 23.8563 24.6132 24.0506 24.4005 24.2985L24.1877 24.5526C24.0356 24.7373 23.8835 24.921 23.7517 25.0529C23.5618 25.2419 23.5618 25.2419 23.6374 25.3711C23.9257 25.8661 24.7205 27.1277 25.8713 28.1537C27.1488 29.2922 28.2416 29.7661 28.828 30.021C28.9546 30.0756 29.0557 30.1204 29.1304 30.1582C29.388 30.2866 29.4144 30.2602 29.5058 30.1564C29.759 29.8681 30.5327 28.9573 30.792 28.5678C31.2791 27.8381 31.9077 28.0667 32.2462 28.1889C32.691 28.3506 34.918 29.4522 35.1439 29.5656L35.3743 29.6782C35.7083 29.8399 35.9721 29.9674 36.1233 30.218C36.3466 30.5925 36.2543 31.6273 35.9167 32.575C35.4877 33.7804 33.5904 34.7703 32.7271 34.8477L32.517 34.8705C32.3121 34.8951 32.0967 34.9215 31.8268 34.9215ZM21.5511 19.1985C21.5283 19.1985 21.5054 19.1985 21.4825 19.1985C21.3216 19.1985 20.9594 19.2258 20.6368 19.5783L20.5515 19.6697C20.1427 20.1058 19.2925 21.0131 19.2925 22.7591C19.2925 24.4673 20.4187 26.1562 20.9032 26.8033C20.9251 26.8323 20.9594 26.8824 21.0095 26.9563C22.971 29.8628 25.3975 31.9939 27.8424 32.9592C30.9239 34.1742 31.7503 34.0766 32.4115 33.9993L32.6462 33.9738C33.2555 33.9193 34.801 33.0832 35.0868 32.2814C35.3795 31.462 35.3918 30.778 35.347 30.6312C35.3532 30.6365 35.143 30.545 34.9909 30.4712L34.7483 30.3516C34.2006 30.0764 32.2813 29.1375 31.9455 29.0153C31.629 28.901 31.6281 28.8983 31.5235 29.0557C31.2167 29.5138 30.363 30.5125 30.1678 30.7349C29.6034 31.3811 28.9511 31.0505 28.7357 30.9424C28.6724 30.9108 28.5853 30.8738 28.4781 30.8272C27.8908 30.5714 26.6696 30.0404 25.2867 28.8087C24.0418 27.6992 23.1881 26.3444 22.8787 25.8134C22.4602 25.0977 22.9305 24.6291 23.131 24.4295C23.2453 24.3153 23.3771 24.1544 23.5099 23.9926L23.7341 23.7236C23.8739 23.56 23.9328 23.4405 24.0295 23.2427L24.091 23.1169C24.1341 23.0308 24.142 22.9508 24.0559 22.7802C24.0101 22.6888 23.8405 22.2721 23.6312 21.7542C23.3446 21.0483 22.9798 20.1462 22.7635 19.6671C22.5622 19.2196 22.4443 19.2143 22.2078 19.2055C22.0048 19.1985 21.7797 19.1985 21.5511 19.1985Z" fill="black"/>
<path fill-rule="evenodd" clip-rule="evenodd" d="M23.1635 19.4895C22.8514 18.795 22.5226 18.7809 22.2245 18.7686C21.981 18.758 21.7032 18.7589 21.4254 18.7589C21.1476 18.7589 20.6957 18.8635 20.3132 19.2812C19.9308 19.6988 18.8529 20.7072 18.8529 22.7591C18.8529 24.8111 20.3475 26.7945 20.5559 27.0723C20.7642 27.3501 23.4413 31.6959 27.6806 33.368C31.2035 34.7571 31.9209 34.4811 32.6857 34.4116C33.4506 34.3422 35.1536 33.4032 35.5008 32.4291C35.8481 31.455 35.8481 30.6206 35.7444 30.4466C35.6397 30.2725 35.3619 30.1688 34.9452 29.9595C34.5285 29.7503 32.4774 28.7419 32.0949 28.603C31.7125 28.464 31.4347 28.3946 31.156 28.8122C30.8782 29.2289 30.079 30.1688 29.8355 30.4466C29.592 30.7253 29.3484 30.7604 28.9317 30.5512C28.515 30.3419 27.1716 29.9024 25.5777 28.4816C24.3381 27.3765 23.5011 26.0112 23.2576 25.5936C23.014 25.1768 23.2312 24.9509 23.4404 24.7425C23.6277 24.5553 23.8572 24.2555 24.0664 24.012C24.2748 23.7684 24.3442 23.5943 24.4831 23.3165C24.622 23.0378 24.5526 22.7943 24.448 22.5859C24.3451 22.3767 23.5345 20.3142 23.1635 19.4895Z" fill="white"/>
<defs>
<filter id="filter0_di_106_3" x="1" y="2" width="52" height="53" filterUnits="userSpaceOnUse" color-interpolation-filters="sRGB">
<feFlood flood-opacity="0" result="BackgroundImageFix"/>
<feColorMatrix in="SourceAlpha" type="matrix" values="0 0 0 0 0 0 0 0 0 0 0 0 0 0 0 0 0 0 127 0" result="hardAlpha"/>
<feOffset dy="1"/>
<feGaussianBlur stdDeviation="1"/>
<feComposite in2="hardAlpha" operator="out"/>
<feColorMatrix type="matrix" values="0 0 0 0 0 0 0 0 0 0 0 0 0 0 0 0 0 0 0.25 0"/>
<feBlend mode="normal" in2="BackgroundImageFix" result="effect1_dropShadow_106_3"/>
<feBlend mode="normal" in="SourceGraphic" in2="effect1_dropShadow_106_3" result="shape"/>
<feColorMatrix in="SourceAlpha" type="matrix" values="0 0 0 0 0 0 0 0 0 0 0 0 0 0 0 0 0 0 127 0" result="hardAlpha"/>
<feOffset dy="4"/>
<feGaussianBlur stdDeviation="2"/>
<feComposite in2="hardAlpha" operator="arithmetic" k2="-1" k3="1"/>
<feColorMatrix type="matrix" values="0 0 0 0 1 0 0 0 0 1 0 0 0 0 1 0 0 0 0.25 0"/>
<feBlend mode="normal" in2="shape" result="effect2_innerShadow_106_3"/>
</filter>
<filter id="filter1_d_106_3" x="7.56067" y="9.08813" width="39.284" height="39.434" filterUnits="userSpaceOnUse" color-interpolation-filters="sRGB">
<feFlood flood-opacity="0" result="BackgroundImageFix"/>
<feColorMatrix in="SourceAlpha" type="matrix" values="0 0 0 0 0 0 0 0 0 0 0 0 0 0 0 0 0 0 127 0" result="hardAlpha"/>
<feOffset dy="2"/>
<feGaussianBlur stdDeviation="1"/>
<feComposite in2="hardAlpha" operator="out"/>
<feColorMatrix type="matrix" values="0 0 0 0 0 0 0 0 0 0 0 0 0 0 0 0 0 0 0.25 0"/>
<feBlend mode="normal" in2="BackgroundImageFix" result="effect1_dropShadow_106_3"/>
<feBlend mode="normal" in="SourceGraphic" in2="effect1_dropShadow_106_3" result="shape"/>
</filter>
<linearGradient id="paint0_linear_106_3" x1="27" y1="-29.1429" x2="27" y2="51" gradientUnits="userSpaceOnUse">
<stop stop-color="#E6E6E6"/>
<stop offset="1" stop-color="#A8A8A8"/>
</linearGradient>
<linearGradient id="paint1_linear_106_3" x1="12.3348" y1="16.8257" x2="37.2847" y2="41.7756" gradientUnits="userSpaceOnUse">
<stop stop-color="#DFE9F2"/>
<stop offset="0.391" stop-color="#D6E0E9"/>
<stop offset="1" stop-color="#BFC8D1"/>
</linearGradient>
<linearGradient id="paint2_linear_106_3" x1="19.958" y1="15.0014" x2="31.8039" y2="40.0919" gradientUnits="userSpaceOnUse">
<stop stop-color="#2ECC75"/>
<stop offset="1" stop-color="#0B964A"/>
</linearGradient>
</defs>
</svg>
